<svg height="20" viewBox="0 0 90 92" width="22" xmlns="http://www.w3.org/2000/svg"><path d="m56.6 58.8h-23.2c-17.5 0-31.8 13.5-33.2 30.6-.1 1.2.8 2.2 2 2.2 1 0 1.9-.8 2-1.8 1.2-15.2 13.8-27 29.2-27h23.3c15.4 0 28 11.9 29.3 26.9.1 1 .9 1.8 2 1.8 1.2 0 2.1-1 2-2.2-1.5-17.1-15.9-30.5-33.4-30.5zm-11.6-12.1c12.9 0 23.3-10.5 23.3-23.3s-10.4-23.4-23.3-23.4-23.3 10.5-23.3 23.4 10.4 23.3 23.3 23.3zm0-42.7c10.7 0 19.3 8.7 19.3 19.3 0 10.7-8.7 19.3-19.3 19.3s-19.3-8.6-19.3-19.2c0-10.7 8.6-19.4 19.3-19.4z"/></svg>