<svg height="20" viewBox="0 0 512 436" width="22" xmlns="http://www.w3.org/2000/svg"><path d="m0 201.48v-17c1.2-7.51 2-15.11 3.67-22.53 8.23-37.71 28.64-68.14 57.25-93.25 45-39.47 98.54-59 157.19-66 35.457972-4.198755 71.364541-2.55358619 106.29 4.87 47 9.94 89.91 28.73 126.31 60.71 28.74 25.3 49.29 55.76 57.63 93.64 1.56 7.11 2.45 14.37 3.66 21.55v18c-.443594 1.415631-.777909 2.863214-1 4.33-2.25 27-11.7 51.47-26.86 73.74-24.65 36.21-58.45 61.33-98.13 78.64-67 29.22-136.29 33.69-207.3 18-3.160071-.60889-6.431662-.206502-9.35 1.15-37.34 18.37-74.55 37-111.8 55.52-1.57.78-3.2 1.45-6 2.72l45.37-91.45c-10.6-7.73-20.93-14.56-30.36-22.38-30.16-24.91-52.34-55.3-61.92-93.81-2.15-8.67-3.13-17.63-4.65-26.45z" fill="#fff"/></svg>