<svg height="20" viewBox="0 0 76 76" width="22" xmlns="http://www.w3.org/2000/svg"><g><path d="m38.006 75.938c-20.917 0-37.934-17.017-37.934-37.933s17.017-37.933 37.934-37.933c20.916 0 37.932 17.017 37.932 37.933s-17.016 37.933-37.932 37.933zm0-70.866c-18.159 0-32.934 14.774-32.934 32.933s14.774 32.933 32.934 32.933c18.158 0 32.932-14.774 32.932-32.933s-14.774-32.933-32.932-32.933z"/><g transform="translate(7 7)"><path d="m14.936 13.521-4.857-4.857-1.414 1.414 4.857 4.857c.451-.49.923-.962 1.414-1.414z"/><path d="m48.488 14.936 4.857-4.857-1.414-1.414-4.857 4.857c.49.451.963.923 1.414 1.414z"/><path d="m7.245 31.005c0-.335.012-.668.025-1h-6.86v2h6.86c-.013-.332-.025-.665-.025-1z"/><path d="m31.005 7.245c.335 0 .668.012 1 .025v-6.86h-2v6.86c.332-.014.665-.025 1-.025z"/><path d="m31.005 54.765c-.335 0-.668-.012-1-.025v6.86h2v-6.86c-.332.013-.665.025-1 .025z"/><path d="m54.739 30.005c.014.332.025.665.025 1s-.012.668-.025 1h6.86v-2z"/><path d="m13.521 47.074-4.857 4.857 1.414 1.414 4.857-4.857c-.49-.451-.962-.923-1.414-1.414z"/><path d="m47.074 48.488 4.857 4.857 1.414-1.414-4.857-4.857c-.451.491-.924.963-1.414 1.414z"/></g><path d="m32.554 58.249-1.866-.597 2.268-21.055.122-.383 10.379-18.453 1.866.597-2.269 21.054-.122.383zm2.368-21.234-1.725 16.008 7.89-14.029 1.726-16.008z"/></g></svg>